Coordinates
version=1
nRows=43
nColumns=12
inDegrees=yes

Units are S.I. units (second, meters, Newtons, ...)
Angles are in degrees

endheader
time	SC_y	SC_z	SC_x	AC_y	AC_z	AC_x	GH_y	GH_z	GH_yy	EL_x	PS_y
       0.0              -59.87          28.91          67.06          68.24          5.978         -11.11          89.42          65.76          76.71          131.8          50.07
   0.04769              -59.87          28.91          67.06          68.23          5.976         -11.11          89.39          65.75          76.67          131.8          50.06
   0.09539              -59.86          28.91          67.06          68.23          5.973         -11.11          89.35          65.75          76.63          131.8          50.06
    0.1431              -59.86          28.91          67.07          68.23          5.971          -11.1          89.31          65.75          76.59          131.8          50.05
    0.1908              -59.86          28.91          67.07          68.22          5.968          -11.1          89.27          65.75          76.55          131.8          50.04
    0.2385              -59.86          28.91          67.07          68.22          5.966          -11.1          89.23          65.74           76.5          131.8          50.03
    0.2862              -59.86          28.91          67.07          68.21          5.963          -11.1          89.18          65.74          76.45          131.8          50.03
    0.3339              -59.86          28.91          67.07          68.21           5.96          -11.1          89.13          65.74           76.4          131.8          50.02
    0.3815              -59.86          28.91          67.08           68.2          5.956          -11.1          89.07          65.73          76.34          131.7          50.01
    0.4292              -59.85          28.91          67.08           68.2          5.953         -11.09          89.01          65.73          76.28          131.7           50.0
    0.4769              -59.85          28.91          67.08          68.19          5.949         -11.09          88.95          65.73          76.22          131.7          49.99
    0.5246              -59.85          28.91          67.08          68.18          5.945         -11.09          88.88          65.72          76.15          131.7          49.97
    0.5723              -59.85          28.92          67.09          68.18          5.941         -11.09          88.81          65.72          76.07          131.7          49.96
      0.62              -59.84          28.92          67.09          68.17          5.936         -11.08          88.73          65.71          75.99          131.7          49.95
    0.6677              -59.84          28.92           67.1          68.16          5.931         -11.08          88.64          65.71           75.9          131.7          49.93
    0.7154              -59.84          28.92           67.1          68.15          5.925         -11.08          88.55           65.7           75.8          131.7          49.92
    0.7631              -59.83          28.92           67.1          68.14          5.919         -11.07          88.45          65.69           75.7          131.7           49.9
    0.8108              -59.83          28.92          67.11          68.13          5.913         -11.07          88.34          65.69          75.59          131.7          49.88
    0.8585              -59.83          28.92          67.11          68.12          5.905         -11.06          88.22          65.68          75.46          131.7          49.86
    0.9062              -59.82          28.92          67.12           68.1          5.898         -11.06          88.09          65.67          75.33          131.7          49.84
    0.9539              -59.82          28.93          67.13          68.09          5.889         -11.05          87.95          65.66          75.18          131.7          49.81
     1.002              -59.81          28.93          67.13          68.07          5.879         -11.05          87.79          65.65          75.01          131.7          49.78
     1.049              -59.81          28.93          67.14          68.05          5.869         -11.04          87.61          65.64          74.83          131.7          49.75
     1.097               -59.8          28.93          67.15          68.03          5.857         -11.03          87.42          65.63          74.63          131.7          49.72
     1.145              -59.79          28.93          67.16          68.01          5.844         -11.02           87.2          65.62          74.41          131.7          49.68
     1.192              -59.79          28.94          67.17          67.99           5.83         -11.02          86.96           65.6          74.16          131.7          49.64
      1.24              -59.78          28.94          67.18          67.96          5.814         -11.01          86.69          65.58          73.88          131.6          49.59
     1.288              -59.77          28.94           67.2          67.93          5.795         -10.99          86.39          65.56          73.56          131.6          49.54
     1.335              -59.76          28.95          67.21          67.89          5.775         -10.98          86.05          65.54          73.21          131.6          49.48
     1.383              -59.74          28.95          67.23          67.85          5.751         -10.97          85.66          65.52           72.8          131.6          49.41
     1.431              -59.73          28.96          67.25          67.81          5.725         -10.95          85.21          65.49          72.34          131.6          49.33
     1.478              -59.71          28.96          67.27          67.76          5.694         -10.93          84.71          65.46          71.82          131.5          49.24
     1.526              -59.69          28.97           67.3           67.7          5.659         -10.91          84.12          65.42          71.21          131.5          49.14
     1.574              -59.67          28.98          67.33          67.63          5.618         -10.88          83.43          65.38           70.5          131.5          49.02
     1.622              -59.64          28.99          67.36          67.55           5.57         -10.85          82.63          65.33          69.67          131.5          48.88
     1.669              -59.61           29.0          67.41          67.45          5.513         -10.82          81.69          65.27          68.69          131.4          48.71
     1.717              -59.58          29.01          67.46          67.34          5.446         -10.77          80.57           65.2          67.53          131.4          48.51
     1.765              -59.53          29.02          67.52           67.2          5.365         -10.72          79.23          65.11          66.14          131.3          48.28
     1.812              -59.48          29.04          67.59          67.03          5.267         -10.66           77.6          65.01          64.45          131.2          47.99
      1.86              -59.41          29.07          67.68          66.83          5.148         -10.59          75.62          64.88          62.39          131.1          47.64
     1.908              -59.33          29.09          67.79          66.58          5.001         -10.49          73.17          64.73          59.85          131.0          47.21
     1.955              -59.23          29.13          67.93          66.27          4.817         -10.38          70.11          64.53          56.69          130.9          46.68
     2.003              -59.11          29.17           68.1          65.88          4.586         -10.23          66.26          64.29          52.69          130.7           46.0
